<svg xmlns="http://www.w3.org/2000/svg" viewBox="0 0 64 64">
  <defs>
    <linearGradient id="pc" x1="0" y1="8" x2="0" y2="58" gradientUnits="userSpaceOnUse">
      <stop offset="0" stop-color="#5cd6ff"/>
      <stop offset="0.35" stop-color="#43f59b"/>
      <stop offset="1" stop-color="#43f59b"/>
    </linearGradient>
  </defs>
  <rect width="64" height="64" rx="13" fill="#070b10"/>
  <!-- faint signal traces -->
  <g stroke="#2a9d68" stroke-width="1" opacity="0.28">
    <line x1="6" y1="18" x2="58" y2="18"/>
    <line x1="6" y1="30" x2="58" y2="30"/>
    <line x1="6" y1="42" x2="58" y2="42"/>
  </g>
  <!-- point-cloud human -->
  <g fill="url(#pc)">
    <!-- head -->
    <circle cx="32" cy="12" r="2.4"/>
    <circle cx="28.6" cy="13.6" r="1.3" opacity="0.7"/>
    <circle cx="35.4" cy="13.6" r="1.3" opacity="0.7"/>
    <!-- shoulders -->
    <circle cx="24" cy="20" r="1.9"/>
    <circle cx="40" cy="20" r="1.9"/>
    <circle cx="28" cy="19" r="1.4" opacity="0.85"/>
    <circle cx="36" cy="19" r="1.4" opacity="0.85"/>
    <!-- torso core -->
    <circle cx="32" cy="20" r="1.7"/>
    <circle cx="32" cy="25" r="1.8"/>
    <circle cx="32" cy="30" r="1.8"/>
    <circle cx="32" cy="35" r="1.7"/>
    <circle cx="28.5" cy="24" r="1.3" opacity="0.75"/>
    <circle cx="35.5" cy="24" r="1.3" opacity="0.75"/>
    <circle cx="28.8" cy="29" r="1.3" opacity="0.7"/>
    <circle cx="35.2" cy="29" r="1.3" opacity="0.7"/>
    <circle cx="29.4" cy="34" r="1.2" opacity="0.65"/>
    <circle cx="34.6" cy="34" r="1.2" opacity="0.65"/>
    <!-- arms -->
    <circle cx="22.2" cy="26" r="1.4" opacity="0.8"/>
    <circle cx="41.8" cy="26" r="1.4" opacity="0.8"/>
    <circle cx="21" cy="32" r="1.3" opacity="0.7"/>
    <circle cx="43" cy="32" r="1.3" opacity="0.7"/>
    <circle cx="20.4" cy="37.5" r="1.2" opacity="0.6"/>
    <circle cx="43.6" cy="37.5" r="1.2" opacity="0.6"/>
    <!-- hips -->
    <circle cx="29" cy="39" r="1.6"/>
    <circle cx="35" cy="39" r="1.6"/>
    <!-- legs -->
    <circle cx="28" cy="44.5" r="1.5" opacity="0.9"/>
    <circle cx="36" cy="44.5" r="1.5" opacity="0.9"/>
    <circle cx="27.4" cy="50" r="1.4" opacity="0.8"/>
    <circle cx="36.6" cy="50" r="1.4" opacity="0.8"/>
    <circle cx="27" cy="55" r="1.3" opacity="0.7"/>
    <circle cx="37" cy="55" r="1.3" opacity="0.7"/>
    <!-- RF uncertainty scatter -->
    <circle cx="18" cy="22" r="0.8" opacity="0.35"/>
    <circle cx="46" cy="23" r="0.8" opacity="0.35"/>
    <circle cx="17" cy="44" r="0.7" opacity="0.3"/>
    <circle cx="47" cy="43" r="0.7" opacity="0.3"/>
    <circle cx="40" cy="9" r="0.7" opacity="0.3"/>
  </g>
</svg>
